<svg width="24" height="24" viewBox="0 0 24 24" fill="none" xmlns="http://www.w3.org/2000/svg">
<path d="M11.9643 4.85957C13.3766 4.85957 14.7571 5.27835 15.9314 6.06296C17.1056 6.84757 18.0208 7.96276 18.5613 9.26752C19.1017 10.5723 19.2431 12.008 18.9676 13.3931C18.6921 14.7782 18.012 16.0505 17.0134 17.0492C16.0148 18.0478 14.7425 18.7278 13.3573 19.0034C11.9722 19.2789 10.5365 19.1375 9.23176 18.597C7.927 18.0566 6.81181 17.1414 6.0272 15.9671C5.2426 14.7929 4.82381 13.4123 4.82381 12.0001C4.83113 10.1085 5.58577 8.29657 6.9233 6.95905C8.26082 5.62153 10.0728 4.86688 11.9643 4.85957ZM11.9643 3.27279C10.2398 3.27985 8.55595 3.79768 7.12546 4.76093C5.69497 5.72417 4.58194 7.08964 3.92686 8.68495C3.27179 10.2803 3.10404 12.0339 3.44481 13.7245C3.78557 15.415 4.61957 16.9667 5.84151 18.1837C7.06345 19.4006 8.61855 20.2283 10.3105 20.5622C12.0024 20.896 13.7554 20.7211 15.348 20.0595C16.9406 19.398 18.3015 18.2794 19.2589 16.8449C20.2163 15.4105 20.7273 13.7246 20.7273 12.0001C20.7273 10.851 20.5004 9.71319 20.0596 8.65202C19.6187 7.59084 18.9727 6.62716 18.1585 5.81629C17.3443 5.00542 16.378 4.36332 15.3151 3.92684C14.2521 3.49036 13.1134 3.26809 11.9643 3.27279Z" fill="#4EA8DE"/>
</svg>
